<svg width="165" height="27" viewBox="0 0 165 27" fill="none" xmlns="http://www.w3.org/2000/svg">
<path d="M8.27858 24.3357C11.4715 24.3357 14.0304 23.4752 15.9553 21.7542C17.9027 20.0105 18.8765 17.395 18.8765 13.9077C18.8765 10.4203 17.7782 7.64633 15.5816 5.58563C13.4077 3.52493 10.7129 2.49458 7.49733 2.49458C5.43663 2.49458 3.64766 2.55119 2.13045 2.66441V24.064C3.60237 24.2452 5.65175 24.3357 8.27858 24.3357ZM7.49733 1C11.2338 1 14.3588 2.16622 16.8724 4.49866C19.386 6.80846 20.6428 9.95613 20.6428 13.9417C20.6428 15.9571 20.3144 17.746 19.6577 19.3085C19.0237 20.8484 18.1405 22.0826 17.0083 23.011C14.6758 24.8905 11.7659 25.8303 8.27858 25.8303C5.99143 25.8303 3.39857 25.7058 0.5 25.4567V1.23777C2.8098 1.07926 5.14224 1 7.49733 1Z" fill="url(#paint0_linear_11_267)"/>
<path d="M27.7906 25.5246V3.47964H29.3531V25.5246H27.7906Z" fill="url(#paint1_linear_11_267)"/>
<path d="M44.711 20.905L52.0819 3.47964H53.7124L44.2354 25.6605H43.3183L33.8413 3.47964H35.5397L43.8618 23.0789C43.975 22.7393 44.2581 22.0146 44.711 20.905Z" fill="url(#paint2_linear_11_267)"/>
<path d="M57.604 17.8819L54.4451 25.5246H52.8486L62.0878 3.34376H63.0049L72.312 25.5246H70.5797L67.3867 17.8819H57.604ZM62.4614 5.85737C62.1217 6.8764 61.816 7.72559 61.5443 8.40494L58.1475 16.5572H66.8432L63.4804 8.43891C62.9596 7.17078 62.6199 6.31027 62.4614 5.85737Z" fill="url(#paint3_linear_11_267)"/>
<path d="M134.963 21.9474V13.3642V12.6566H135.671H137.233H137.941V13.3642V23.1469V23.5423L137.604 23.7496C135.68 24.9335 133.028 25.485 129.727 25.485C126.31 25.485 123.4 24.3185 121.043 21.9854C118.686 19.6526 117.504 16.7753 117.504 13.3982C117.504 10.0229 118.555 7.15244 120.679 4.83572L120.682 4.83278C122.841 2.50354 125.627 1.34535 128.979 1.34535C131.613 1.34535 134.189 1.75338 136.704 2.56869L137.372 2.78522L137.161 3.45498L136.753 4.74574L136.542 5.4156L135.87 5.20901C133.584 4.50553 131.22 4.15334 128.776 4.15334C126.47 4.15334 124.542 5.02515 122.951 6.80424L134.963 21.9474ZM134.963 21.9474C133.665 22.3995 131.875 22.643 129.557 22.643C127.15 22.643 125.064 21.7624 123.265 19.9645C121.475 18.1523 120.584 15.9662 120.584 13.3642C120.584 10.7356 121.38 8.56466 122.951 6.80461L134.963 21.9474ZM91.533 20.409L91.5296 20.412C89.9447 21.8322 87.806 22.5751 85.0385 22.5751C83.1244 22.5751 81.5508 22.518 80.3114 22.4064V4.37815C81.3376 4.31929 82.685 4.28921 84.3592 4.28921C87.0913 4.28921 89.3479 5.158 91.1768 6.88187L91.1768 6.88188L91.1798 6.88463C93.0061 8.58644 93.9437 10.889 93.9437 13.8737C93.9437 16.8902 93.1011 19.0218 91.533 20.409ZM77.2656 24.3697V25.0143L77.9074 25.0743C80.3509 25.3027 82.728 25.4171 85.0385 25.4171C88.4793 25.4171 91.3495 24.4712 93.5858 22.5272C95.8905 20.5438 96.9895 17.6144 96.9895 13.8737C96.9895 10.1112 95.7874 7.06673 93.3303 4.82718C90.922 2.58866 87.9143 1.48122 84.3592 1.48122C81.9015 1.48122 79.7544 1.54946 77.9203 1.68701L77.2656 1.73611V2.39269V24.3697ZM105.411 9.49316L105.411 9.49315L105.407 9.4898C104.505 8.62733 104.097 7.70615 104.097 6.70657C104.097 5.8378 104.399 5.22953 104.975 4.78907C105.592 4.317 106.425 4.05144 107.534 4.05144C109.28 4.05144 110.791 4.37446 112.083 4.99981L112.733 5.31426L113.034 4.65826L113.612 3.40146L113.899 2.77553L113.281 2.47117C111.655 1.6703 109.837 1.27742 107.84 1.27742C105.837 1.27742 104.168 1.73038 102.917 2.72101L102.917 2.72098L102.911 2.72555C101.661 3.73615 101.052 5.13788 101.052 6.84244C101.052 8.56264 101.715 10.0746 102.991 11.351L102.991 11.3511L103.001 11.3604C103.621 11.958 104.171 12.4494 104.646 12.8299L104.655 12.8368L104.664 12.8434C105.127 13.1908 105.928 13.7629 107.06 14.5554L107.06 14.5554L107.065 14.5591C108.199 15.3372 109.079 16.0457 109.717 16.6839L109.717 16.684L109.723 16.6898C110.59 17.5366 110.97 18.4046 110.97 19.3086C110.97 20.4196 110.573 21.2191 109.795 21.7979L109.795 21.7979L109.788 21.8027C109.004 22.4002 107.841 22.7449 106.209 22.7449C104.641 22.7449 103.147 22.2731 101.714 21.304L101.132 20.9099L100.734 21.4899L99.9189 22.6788L99.5416 23.229L100.069 23.638C101.73 24.9274 103.77 25.5529 106.141 25.5529C108.494 25.5529 110.423 25.0601 111.836 23.9811L111.837 23.9799C113.312 22.8478 114.016 21.1947 114.016 19.1387C114.016 17.4853 113.375 16.0302 112.144 14.8L112.144 14.7999L112.135 14.7906C111.515 14.1935 110.975 13.7118 110.52 13.3523C110.066 12.9936 109.253 12.426 108.103 11.6589C106.994 10.8823 106.099 10.1602 105.411 9.49316ZM143.94 24.4377V25.1453H144.648H146.21H146.918V24.4377V8.57479C146.918 8.16049 146.917 7.78095 146.914 7.4369L147.464 8.10667L147.47 8.11474L147.477 8.1226L162.219 25.0385L162.431 25.2812H162.753H163.5H164.208V24.5735V2.39269V1.68503H163.5H161.937H161.23V2.39269V18.3575C161.23 18.7432 161.231 19.1 161.234 19.4273C160.969 19.0957 160.69 18.7648 160.398 18.4344C160.397 18.4336 160.396 18.4329 160.395 18.4321L145.929 1.79252L145.718 1.54916H145.395H144.648H143.94V2.25682V24.4377Z" fill="white" stroke="white" stroke-width="1.41532"/>
<defs>
<linearGradient id="paint0_linear_11_267" x1="34.3625" y1="-4.19704" x2="34.3625" y2="32.6012" gradientUnits="userSpaceOnUse">
<stop stop-color="#EBEDE3"/>
<stop offset="0.515625" stop-color="#FF79D3"/>
<stop offset="1" stop-color="#FF536B"/>
</linearGradient>
<linearGradient id="paint1_linear_11_267" x1="34.3625" y1="-4.19704" x2="34.3625" y2="32.6012" gradientUnits="userSpaceOnUse">
<stop stop-color="#EBEDE3"/>
<stop offset="0.515625" stop-color="#FF79D3"/>
<stop offset="1" stop-color="#FF536B"/>
</linearGradient>
<linearGradient id="paint2_linear_11_267" x1="34.3625" y1="-4.19704" x2="34.3625" y2="32.6012" gradientUnits="userSpaceOnUse">
<stop stop-color="#EBEDE3"/>
<stop offset="0.515625" stop-color="#FF79D3"/>
<stop offset="1" stop-color="#FF536B"/>
</linearGradient>
<linearGradient id="paint3_linear_11_267" x1="34.3625" y1="-4.19704" x2="34.3625" y2="32.6012" gradientUnits="userSpaceOnUse">
<stop stop-color="#EBEDE3"/>
<stop offset="0.515625" stop-color="#FF79D3"/>
<stop offset="1" stop-color="#FF536B"/>
</linearGradient>
</defs>
</svg>
