<svg width="163" height="45" viewBox="0 0 163 45" fill="none" xmlns="http://www.w3.org/2000/svg">
<g clip-path="url(#clip0_25_488)">
<path fill-rule="evenodd" clip-rule="evenodd" d="M159.877 24.3306C160.186 23.9493 160.803 23.9493 161.111 24.4069L162.268 26.0086C162.5 26.3137 162.5 26.7713 162.268 27.0764C160.186 29.7459 156.637 32.2628 152.24 32.4916C148.846 32.7204 145.991 31.4238 144.448 28.9832C144.14 28.5255 143.446 28.4493 143.137 28.9069C141.286 31.3476 139.126 33.2543 136.811 33.3306C132.723 33.5594 131.566 30.8137 132.568 24.8645C132.646 24.2543 132.106 23.7967 131.566 23.9493C130.717 24.1781 129.791 24.2543 128.866 24.1781C128.48 24.1781 128.094 24.4069 128.017 24.712C126.474 29.6696 122.926 34.2459 118.22 34.4747C115.211 34.6272 110.814 32.9493 111.2 25.856C111.2 25.2459 110.737 24.8645 110.197 25.0171C109.271 25.3221 108.268 25.3984 107.266 25.3221C106.88 25.3221 106.494 25.551 106.417 25.856C104.874 30.8137 101.326 35.3899 96.6199 35.6188C93.6113 35.7713 89.2141 34.0933 89.5999 27.0001C89.5999 26.3899 89.137 26.0086 88.597 26.1611C87.6713 26.4662 86.6684 26.5425 85.6656 26.4662C85.2799 26.4662 84.8941 26.695 84.817 27.0001C83.2741 31.9577 79.7256 36.534 75.0199 36.7628C72.8598 36.9154 70.0056 36.0764 68.6941 33.0255C68.4627 32.4154 67.6913 32.3391 67.3056 32.873C65.4541 35.3899 63.217 37.2967 60.9027 37.4493C58.5113 37.6018 57.1998 36.6103 56.5827 34.9323C56.3513 34.3221 55.657 34.1696 55.1941 34.6272C53.5741 36.534 51.6456 37.9069 49.7941 38.0594C46.8627 38.212 45.1656 36.0764 45.0884 33.4832C44.9341 30.4323 46.2456 26.9238 47.7113 23.034C47.9427 22.5001 47.557 21.8899 47.017 21.8899C46.1684 21.8899 45.1656 21.7374 44.317 21.5849C43.9313 21.5086 43.4684 21.7374 43.3913 22.195C41.617 28.373 38.9941 34.3984 36.6799 37.9832C36.4484 38.3645 35.9084 38.5171 35.5227 38.212L33.8256 36.9916C33.4399 36.7628 33.3627 36.2289 33.5941 35.8476C36.8341 30.6611 39.7656 22.5764 40.7684 16.6272C40.8456 16.2459 41.1541 15.9408 41.5399 15.9408L43.8541 15.7882C44.3941 15.7882 44.7799 16.2459 44.7027 16.7798V16.856C44.6256 17.3137 44.9341 17.7713 45.397 17.8476C47.4799 18.1527 50.4884 18.1527 52.5713 18.0764C53.1884 18.0764 53.5741 18.6866 53.3427 19.2204C51.6456 23.6442 49.4084 29.7459 49.5627 32.1103C49.6399 33.1781 50.1027 33.7882 50.9513 33.712C52.5713 33.6357 55.117 30.356 57.0456 26.7713C57.0456 26.695 57.1227 26.6187 57.1227 26.5425C57.7399 23.7204 58.7427 20.5171 59.6684 17.3137L59.7456 17.0849C59.8227 16.7798 60.1313 16.551 60.4398 16.4747L63.217 16.3221C63.757 16.3221 64.2199 16.856 64.0656 17.3899C63.9113 17.8476 63.757 18.3052 63.6799 18.7628C61.2884 26.6188 59.2056 33.1781 61.9827 33.0255C63.757 32.9493 66.3027 29.8984 68.4627 25.7035C68.4627 25.6272 68.5398 25.551 68.5398 25.4747C68.617 24.9408 68.7713 24.3306 68.9256 23.7204C70.1599 18.6866 71.6256 13.7289 73.0913 8.77129C73.5541 7.24587 74.017 5.72045 74.4027 4.19502C74.4799 3.88994 74.7884 3.58485 75.1741 3.58485L78.0284 3.43231C78.5684 3.43231 79.0313 3.96621 78.877 4.50011C77.7198 8.00858 76.5627 11.6696 75.4827 15.2543C75.2513 16.0171 76.0999 16.6272 76.717 16.1696C77.797 15.4069 79.1084 14.9493 80.3427 14.873C83.5056 14.7204 85.6656 17.2374 85.897 21.1272C85.897 21.356 85.897 21.5849 85.897 21.8137C85.897 22.2713 86.2056 22.5764 86.6684 22.6527C88.1341 22.8052 89.677 22.3476 90.8341 21.2798C90.9884 21.2035 91.0656 21.051 91.0656 20.8984C92.2227 16.3984 93.5341 11.9747 94.8456 7.47468C95.3084 5.94926 95.6941 4.42384 96.157 2.89841C96.2341 2.59333 96.5427 2.28824 96.9284 2.28824L99.7827 2.1357C100.323 2.1357 100.786 2.6696 100.631 3.2035C99.4741 6.71197 98.317 10.373 97.237 13.9577C97.0056 14.7204 97.8541 15.3306 98.4713 14.873C99.5513 14.1103 100.863 13.6526 102.097 13.5764C105.26 13.4238 107.42 15.9408 107.651 19.8306C107.651 20.0594 107.651 20.2882 107.651 20.5171C107.651 20.9747 107.96 21.2798 108.423 21.356C109.888 21.5086 111.431 21.051 112.588 19.9832C112.743 19.9069 112.82 19.7543 112.82 19.6018C113.977 15.1018 115.288 10.6781 116.6 6.17807C117.063 4.65265 117.448 3.12723 117.911 1.6018C117.988 1.29672 118.297 0.991633 118.683 0.991633L121.537 0.839091C122.077 0.839091 122.54 1.37299 122.386 1.90689C121.228 5.41536 120.071 9.07638 118.991 12.6611C118.76 13.4238 119.608 14.034 120.226 13.5764C121.306 12.8137 122.617 12.356 123.851 12.2798C127.014 12.1272 129.174 14.6442 129.406 18.534C129.406 18.7628 129.406 18.9916 129.406 19.2204C129.406 19.6781 129.714 19.9832 130.177 20.0594C131.643 20.212 133.108 19.7543 134.266 18.8391C134.42 18.7628 134.497 18.6103 134.497 18.3815C135.808 13.3476 137.814 6.6357 139.666 0.305192C139.743 0.000107586 140.051 -0.228706 140.36 -0.304977L143.137 -0.45752C143.677 -0.45752 144.14 0.0763789 143.986 0.610277C141.363 9.15265 139.28 16.551 138.123 20.9747C136.58 26.9238 136.503 28.6781 138.277 28.5255C139.743 28.4493 141.748 26.3899 143.6 23.2628C143.677 23.1103 143.677 23.034 143.754 22.8815C143.986 16.6272 147.92 10.9069 153.706 10.6018C157.563 10.373 159.723 13.2713 159.877 16.0933C160.186 21.5086 154.708 25.0171 149.463 24.712C148.846 24.6357 148.383 25.3221 148.691 25.856C149.463 27.3815 151.006 28.2967 153.628 28.1442C155.557 28.4493 158.257 26.2374 159.877 24.3306ZM72.8599 25.856C71.6256 30.8137 73.0913 32.7204 75.097 32.6442C78.337 32.4916 81.4227 26.6188 81.1913 22.1188C81.1141 20.1357 79.957 19.1442 78.5684 19.2204C76.2541 19.373 73.8627 21.8899 72.8599 25.856ZM94.4599 24.6357C93.2256 29.5933 94.6913 31.5001 96.697 31.4238C99.937 31.2713 103.023 25.3984 102.791 20.8984C102.714 18.9154 101.557 17.9238 100.168 18.0001C97.9313 18.1527 95.4627 20.6696 94.4599 24.6357ZM116.137 23.4154C114.903 28.373 116.368 30.2798 118.374 30.2035C121.614 30.051 124.7 24.1781 124.468 19.6781C124.391 17.695 123.234 16.7035 121.846 16.7798C119.531 16.9323 117.14 19.4493 116.137 23.4154ZM155.248 16.9323C155.248 15.6357 154.4 14.7204 153.088 14.7967C150.543 14.9493 148.537 17.695 147.843 21.051C147.766 21.5849 148.151 22.0425 148.691 22.0425C152.008 21.9662 155.326 19.7543 155.248 16.9323ZM34.7513 19.373C34.4427 9.30519 27.8084 2.6696 18.0113 3.05096C13.7684 3.2035 8.98557 4.80519 5.35985 7.55095C5.05128 7.77977 4.897 8.31367 5.12843 8.69502L6.67128 11.1357C6.90271 11.5933 7.51985 11.6696 7.90557 11.3645C10.6827 9.07638 14.3856 7.62723 18.0113 7.47468C24.7227 7.1696 29.6599 11.4408 29.8913 19.6018C30.277 29.1357 23.797 40.0425 13.3827 40.6526C12.997 40.6526 12.6113 40.6526 12.2256 40.6526C11.6856 40.6526 11.2999 40.1188 11.4541 39.5849C13.4599 31.5764 15.7741 22.9577 18.1656 14.9493C18.3199 14.4154 17.9341 13.8052 17.317 13.8815L14.3856 14.1103C14.077 14.1103 13.7684 14.3391 13.6141 14.7204C11.2999 22.5764 8.98557 31.1188 6.97985 39.1272C6.82557 39.5849 6.36271 39.8899 5.977 39.7374C4.897 39.356 3.89414 38.9747 3.04557 38.4408C2.65985 38.212 2.11985 38.3645 1.88843 38.8221L0.576998 41.4916C0.345569 41.873 0.499855 42.4069 0.885569 42.5594C3.817 44.2374 8.36843 45.1527 12.9199 44.9238C27.8084 44.0849 35.137 30.5086 34.7513 19.373ZM63.9884 7.01706C62.2141 7.09333 60.5941 9.15265 60.6713 11.212C60.7484 12.5849 61.6741 13.5764 63.0627 13.5001C64.837 13.4238 66.5341 11.2882 66.457 9.22892C66.3799 7.85604 65.2999 6.94079 63.9884 7.01706Z" fill="white"/>
</g>
<defs>
<clipPath id="clip0_25_488">
<rect width="162" height="45" fill="white" transform="translate(0.5)"/>
</clipPath>
</defs>
</svg>
